<svg width="76" height="76" viewBox="0 0 76 76" fill="none" xmlns="http://www.w3.org/2000/svg">
<path d="M73.75 25.5V70.75C73.75 72.4069 72.4069 73.75 70.75 73.75H25.5C23.8431 73.75 22.5 72.4069 22.5 70.75V63.5H15.25C13.5931 63.5 12.25 62.1569 12.25 60.5V53.25H5C3.34315 53.25 2 51.9069 2 50.25V43V5C2 3.34315 3.34315 2 5 2H43H50.25C51.9069 2 53.25 3.34315 53.25 5V12.25H60.5C62.1569 12.25 63.5 13.5931 63.5 15.25V22.5H70.75C72.4069 22.5 73.75 23.8431 73.75 25.5Z" fill="#DAE3F8"/>
<path d="M53.25 12.25H15.25C13.5931 12.25 12.25 13.5931 12.25 15.25V53.25M53.25 12.25H60.5C62.1569 12.25 63.5 13.5931 63.5 15.25V22.5M53.25 12.25V5C53.25 3.34315 51.9069 2 50.25 2H43H5C3.34315 2 2 3.34315 2 5V43V50.25C2 51.9069 3.34315 53.25 5 53.25H12.25M12.25 53.25V60.5C12.25 62.1569 13.5931 63.5 15.25 63.5H22.5M63.5 22.5H70.75C72.4069 22.5 73.75 23.8431 73.75 25.5V70.75C73.75 72.4069 72.4069 73.75 70.75 73.75H25.5C23.8431 73.75 22.5 72.4069 22.5 70.75V63.5M63.5 22.5H25.5C23.8431 22.5 22.5 23.8431 22.5 25.5V63.5" stroke="black" stroke-width="4"/>
</svg>
