<svg width="1094" height="515" viewBox="0 0 1094 515" fill="none" xmlns="http://www.w3.org/2000/svg">
<g filter="url(#filter0_b)">
<path d="M0 15C0 6.71573 6.71573 0 15 0H68.375H136.75H205.125H273.5H341.875H410.25H478.625H547H615.375H683.75H752.125H820.5H888.875H957.25H1025.62H1079C1087.28 0 1094 6.71573 1094 15V64.375V128.75V193.125V257.5V323.362V389.224V452.112V500C1094 508.284 1087.28 515 1079 515H1025.62H957.25H888.875H820.5H752.125H683.75H615.375H547H478.625H410.25H341.875H273.5H205.125H136.75H68.375H15C6.71573 515 0 508.284 0 500V450.625V386.25V321.875V257.5V193.125V128.75V64.375V15Z" fill="#3D445E"/>
<path d="M3 15C3 8.37258 8.37258 3 15 3H68.375H136.75H205.125H273.5H341.875H410.25H478.625H547H615.375H683.75H752.125H820.5H888.875H957.25H1025.62H1079C1085.63 3 1091 8.37258 1091 15V64.375V128.75V193.125V257.5V323.362V389.224V452.112V500C1091 506.627 1085.63 512 1079 512H1025.62H957.25H888.875H820.5H752.125H683.75H615.375H547H478.625H410.25H341.875H273.5H205.125H136.75H68.375H15C8.37258 512 3 506.627 3 500V450.625V386.25V321.875V257.5V193.125V128.75V64.375V15Z" stroke="#F8F8F2" stroke-opacity="0.13" stroke-width="6"/>
</g>
<defs>
<filter id="filter0_b" x="-4" y="-4" width="1102" height="523" filterUnits="userSpaceOnUse" color-interpolation-filters="sRGB">
<feFlood flood-opacity="0" result="BackgroundImageFix"/>
<feGaussianBlur in="BackgroundImage" stdDeviation="2"/>
<feComposite in2="SourceAlpha" operator="in" result="effect1_backgroundBlur"/>
<feBlend mode="normal" in="SourceGraphic" in2="effect1_backgroundBlur" result="shape"/>
</filter>
</defs>
</svg>
