<svg width="24" height="42" viewBox="0 0 24 42" fill="none" xmlns="http://www.w3.org/2000/svg">
<path d="M22 21V11C22 8.06147 20.0001 5.50002 17.1493 4.78732L3.24254 1.31063C2.61139 1.15285 2 1.63021 2 2.28078V6V11V21V31V36V39.7192C2 40.3698 2.61139 40.8472 3.24254 40.6894L17.1493 37.2127C20.0001 36.5 22 33.9385 22 31V21Z" fill="#F4F9FF" stroke="black" stroke-width="2.5"/>
<path d="M10.1823 17.1394C10.1823 16.6607 10.5704 16.2727 11.049 16.2727H12.5874C13.0661 16.2727 13.4541 16.6607 13.4541 17.1394V18.1672C13.4541 18.8851 14.0361 19.4672 14.7541 19.4672H15.6788C16.1575 19.4672 16.5455 19.8552 16.5455 20.3338V21.7177C16.5455 22.1963 16.1575 22.5843 15.6788 22.5843H14.7541C14.0361 22.5843 13.4541 23.1664 13.4541 23.8843V24.8606C13.4541 25.3392 13.0661 25.7273 12.5874 25.7273H11.049C10.5704 25.7273 10.1823 25.3392 10.1823 24.8606V23.8843C10.1823 23.1664 9.60032 22.5843 8.88235 22.5843H7.95761C7.47896 22.5843 7.09094 22.1963 7.09094 21.7177V20.3338C7.09094 19.8552 7.47896 19.4672 7.95761 19.4672H8.88235C9.60032 19.4672 10.1823 18.8851 10.1823 18.1672V17.1394Z" fill="black"/>
</svg>
