<svg width="40" height="50" viewBox="0 0 40 50" fill="none" xmlns="http://www.w3.org/2000/svg">
<path d="M24.9079 19.3034L24.845 19.22L24.771 19.1461C24.6167 18.992 24.5 18.7607 24.5 18.4499V10.4403V2.43072C24.5 2.02455 24.7013 1.74349 24.9409 1.60292C25.1733 1.46651 25.4351 1.458 25.6871 1.62368L37.8777 9.63818C37.9593 9.69181 38.0261 9.75442 38.0807 9.82362L38.144 9.90373L38.2175 9.97453C38.3779 10.1289 38.5 10.3642 38.5 10.6819V18.6916V23.2988V25V26.7012V31.3084V39.3181C38.5 39.6358 38.3779 39.8711 38.2175 40.0255L38.144 40.0963L38.0807 40.1764C38.0261 40.2456 37.9593 40.3082 37.8777 40.3618L25.6871 48.3763C25.4351 48.542 25.1733 48.5335 24.9409 48.3971C24.7013 48.2565 24.5 47.9754 24.5 47.5693V39.5597V31.5501C24.5 31.2394 24.6167 31.008 24.771 30.8539L24.845 30.78L24.9079 30.6966C24.9486 30.6428 24.9958 30.5934 25.0503 30.5491C25.0613 30.5402 25.0744 30.5297 25.0892 30.5178C25.1906 30.4364 25.3729 30.29 25.535 30.1263L24.4733 29.075L25.535 30.1263L29.5659 26.0554L30.6109 25L29.5659 23.9446L25.535 19.8737C25.3729 19.71 25.1906 19.5636 25.0892 19.4822C25.0744 19.4703 25.0613 19.4598 25.0503 19.4509C24.9959 19.4066 24.9486 19.3572 24.9079 19.3034Z" fill="#F3FFE9" stroke="black" stroke-width="3"/>
<path d="M14.697 44.8412L3.64924 37.9962C3.2807 37.7679 3.2807 37.2318 3.64924 37.0034L14.697 30.1584C15.0861 29.9174 15.5886 30.1972 15.5886 30.6549V44.3448C15.5886 44.8025 15.0861 45.0823 14.697 44.8412Z" fill="#D8F8FF" stroke="black" stroke-width="3"/>
<path d="M14.6972 19.9304L3.64937 13.0896C3.28077 12.8614 3.28062 12.3252 3.6491 12.0968L14.6969 5.24761C15.0859 5.00643 15.5886 5.28622 15.5886 5.74394V19.4339C15.5886 19.8915 15.0862 20.1713 14.6972 19.9304Z" fill="#DEFFE5" stroke="black" stroke-width="3"/>
</svg>
