<svg width="74" height="74" viewBox="0 0 74 74" fill="none" xmlns="http://www.w3.org/2000/svg">
<path d="M72 30.811V69.439C72 70.8534 70.8534 72 69.439 72H30.811C29.3966 72 28.25 70.8534 28.25 69.439V63.25H22.061C20.6466 63.25 19.5 62.1034 19.5 60.689V54.5H13.311C11.8966 54.5 10.75 53.3534 10.75 51.939V45.75H4.56098C3.14659 45.75 2 44.6034 2 43.189V37V4.56097C2 3.14659 3.14659 2 4.56098 2H37H43.189C44.6034 2 45.75 3.14659 45.75 4.56098V10.75H51.939C53.3534 10.75 54.5 11.8966 54.5 13.311V19.5H60.689C62.1034 19.5 63.25 20.6466 63.25 22.061V28.25H69.439C70.8534 28.25 72 29.3966 72 30.811Z" fill="url(#paint0_linear)"/>
<path class = "stroke" d="M45.75 10.75H13.311C11.8966 10.75 10.75 11.8966 10.75 13.311V45.75M45.75 10.75H51.939C53.3534 10.75 54.5 11.8966 54.5 13.311V19.5M45.75 10.75V4.56098C45.75 3.14659 44.6034 2 43.189 2H37H4.56098C3.14659 2 2 3.14659 2 4.56097V37V43.189C2 44.6034 3.14659 45.75 4.56098 45.75H10.75M10.75 45.75V51.939C10.75 53.3534 11.8966 54.5 13.311 54.5H19.5M54.5 19.5H22.061C20.6466 19.5 19.5 20.6466 19.5 22.061V54.5M54.5 19.5H60.689C62.1034 19.5 63.25 20.6466 63.25 22.061V28.25M19.5 54.5V60.689C19.5 62.1034 20.6466 63.25 22.061 63.25H28.25M63.25 28.25H69.439C70.8534 28.25 72 29.3966 72 30.811V69.439C72 70.8534 70.8534 72 69.439 72H30.811C29.3966 72 28.25 70.8534 28.25 69.439V63.25M63.25 28.25H30.811C29.3966 28.25 28.25 29.3966 28.25 30.811V63.25" stroke="black" stroke-width="3.5"/>
<defs>
<linearGradient id="paint0_linear" x1="3.06707" y1="3.06707" x2="71.3597" y2="71.3597" gradientUnits="userSpaceOnUse">
<stop stop-color="#5F64D7"/>
<stop offset="1" stop-color="#F1FDFF"/>
</linearGradient>
</defs>
</svg>
