<svg width="28" height="95" viewBox="0 0 28 95" fill="none" xmlns="http://www.w3.org/2000/svg">
<path d="M6.58416 1.64604H20.6931C23.4203 1.64604 25.6312 3.85691 25.6312 6.58416V88.4158C25.6312 91.1431 23.4203 93.354 20.6931 93.354H6.58416C3.85691 93.354 1.64604 91.1431 1.64604 88.4158V6.58416C1.64604 3.85691 3.85691 1.64604 6.58416 1.64604Z" fill="#E4ECFF" stroke="black" stroke-width="3.29208"/>
<rect x="7.52466" y="41.386" width="12.2277" height="12.2277" rx="2.82178" fill="#6E789D"/>
<rect x="8.81798" y="42.6793" width="9.64109" height="9.64109" rx="1.52847" stroke="black" stroke-opacity="0.15" stroke-width="2.58663"/>
<rect x="7.52466" y="58.3167" width="12.2277" height="12.2277" rx="2.82178" fill="#AEC0FF"/>
<rect x="8.81798" y="59.61" width="9.64109" height="9.64109" rx="1.52847" stroke="black" stroke-opacity="0.15" stroke-width="2.58663"/>
<rect x="7.52466" y="75.2476" width="12.2277" height="12.2277" rx="2.82178" fill="#859EF9"/>
<rect x="8.81798" y="76.5409" width="9.64109" height="9.64109" rx="1.52847" stroke="black" stroke-opacity="0.15" stroke-width="2.58663"/>
<rect x="7.52466" y="24.4553" width="12.2277" height="12.2277" rx="2.82178" fill="#E2E9FF"/>
<rect x="8.81798" y="25.7486" width="9.64109" height="9.64109" rx="1.52847" stroke="black" stroke-opacity="0.15" stroke-width="2.58663"/>
<rect x="7.52466" y="7.52466" width="12.2277" height="12.2277" rx="2.82178" fill="#859EF9"/>
<rect x="8.81798" y="8.81798" width="9.64109" height="9.64109" rx="1.52847" stroke="black" stroke-opacity="0.15" stroke-width="2.58663"/>
</svg>
