<svg width="39" height="76" viewBox="0 0 39 76" fill="none" xmlns="http://www.w3.org/2000/svg">
<path d="M1.50002 9.26405V9.26446L1.50021 66.0525C1.50021 66.3298 1.64386 66.5899 1.88438 66.7389L13.095 73.6848C13.649 74.028 14.3484 73.6247 14.3484 72.9984V2.31362C14.3484 1.68719 13.6488 1.28388 13.0948 1.62733L1.884 8.57753C1.64353 8.72662 1.49994 8.98683 1.50002 9.26405Z" fill="#F0F2F7" stroke="black" stroke-width="3"/>
<path d="M23.4314 44.9967L34.4792 38.1518C34.8477 37.9234 34.8477 37.3873 34.4792 37.1589L23.4314 30.3139C23.0423 30.0729 22.5398 30.3527 22.5398 30.8104V44.5003C22.5398 44.958 23.0423 45.2378 23.4314 44.9967Z" fill="#FFDDD8" stroke="black" stroke-width="3"/>
<path d="M23.4314 69.9091L34.4792 63.0641C34.8477 62.8358 34.8477 62.2996 34.4792 62.0713L23.4314 55.2263C23.0423 54.9853 22.5398 55.2651 22.5398 55.7227V69.4127C22.5398 69.8703 23.0423 70.1501 23.4314 69.9091Z" fill="#FFC8CD" stroke="black" stroke-width="3"/>
<path d="M23.4312 20.0857L34.479 13.2449C34.8476 13.0166 34.8478 12.4805 34.4793 12.252L23.4315 5.40288C23.0425 5.16171 22.5398 5.44149 22.5398 5.89922V19.5892C22.5398 20.0468 23.0422 20.3266 23.4312 20.0857Z" fill="#FFE8D5" stroke="black" stroke-width="3"/>
</svg>
