<svg width="12" height="10" viewBox="0 0 12 10" fill="none" xmlns="http://www.w3.org/2000/svg">
<path d="M4.88826 5.12561C5.13978 4.86501 5.13978 4.4425 4.88826 4.18191L1.85727 1.04155C1.73649 0.916406 1.57267 0.846101 1.40185 0.846101H0.644106C0.383608 0.846101 0.148761 1.00868 0.0490729 1.25803C-0.0506147 1.50739 0.00448764 1.7944 0.188687 1.98525L1.99557 4.36501L1.99261 4.94557L0.188687 7.32226C0.00448764 7.51311 -0.0506147 7.80013 0.0490729 8.04948C0.148761 8.29883 0.383608 8.46141 0.644106 8.46141H1.40185C1.57267 8.46141 1.73649 8.39111 1.85727 8.26597L4.88826 5.12561Z" fill="black"/>
<path d="M11.7797 5.23051C12.0731 4.912 12.0731 4.3956 11.7797 4.0771L8.24352 0.238882C8.1026 0.08593 7.91148 1.10955e-06 7.7122 1.10955e-06H6.82816C6.52424 1.10955e-06 6.25026 0.198712 6.13395 0.503476C6.01765 0.80824 6.08194 1.15904 6.29684 1.3923L8.40486 4.30089L8.40141 5.01046L6.29684 7.91531C6.08194 8.14857 6.01765 8.49937 6.13395 8.80413C6.25026 9.10889 6.52424 9.30761 6.82816 9.30761H7.7122C7.91148 9.30761 8.1026 9.22168 8.24352 9.06873L11.7797 5.23051Z" fill="#808080"/>
</svg>
