<svg width="30" height="25" viewBox="0 0 30 25" fill="none" xmlns="http://www.w3.org/2000/svg">
<mask id="path-1-inside-1" fill="white">
<path d="M21.0993 0H8.06738C3.84699 0 0.383533 3.82469 0.0297647 8.04211C-0.00294567 8.43207 0.317231 8.75 0.708555 8.75H1.54216C1.73007 8.75 1.91029 8.82501 2.04317 8.95853L5.37758 12.3091C5.65428 12.5871 5.65428 13.0379 5.37758 13.3159L2.04317 16.6665C1.91029 16.8 1.73007 16.875 1.54216 16.875H0.708555C0.317231 16.875 -0.00320536 17.1933 0.0302217 17.5832C0.386505 21.7389 3.84881 25 8.06738 25H21.0993C25.5548 25 29.1667 21.3623 29.1667 16.875V14.6875V12.5V10.3125V8.125C29.1667 3.63769 25.5548 0 21.0993 0Z"/>
</mask>
<path d="M21.0993 0H8.06738C3.84699 0 0.383533 3.82469 0.0297647 8.04211C-0.00294567 8.43207 0.317231 8.75 0.708555 8.75H1.54216C1.73007 8.75 1.91029 8.82501 2.04317 8.95853L5.37758 12.3091C5.65428 12.5871 5.65428 13.0379 5.37758 13.3159L2.04317 16.6665C1.91029 16.8 1.73007 16.875 1.54216 16.875H0.708555C0.317231 16.875 -0.00320536 17.1933 0.0302217 17.5832C0.386505 21.7389 3.84881 25 8.06738 25H21.0993C25.5548 25 29.1667 21.3623 29.1667 16.875V14.6875V12.5V10.3125V8.125C29.1667 3.63769 25.5548 0 21.0993 0Z" fill="url(#paint0_radial)"/>
<path d="M0.0302217 17.5832L2.10594 17.4052L2.10594 17.4052L0.0302217 17.5832ZM0.0297647 8.04211L-2.04628 7.86797L-2.04628 7.86797L0.0297647 8.04211ZM5.37758 12.3091L3.90089 13.7787L3.90089 13.7787L5.37758 12.3091ZM5.37758 13.3159L3.90089 11.8463L3.90089 11.8464L5.37758 13.3159ZM2.04317 8.95853L0.566477 10.4281L0.566479 10.4281L2.04317 8.95853ZM2.04317 16.6665L3.51985 18.1361L3.51986 18.1361L2.04317 16.6665ZM8.06738 2.08333H21.0993V-2.08333H8.06738V2.08333ZM21.0993 22.9167H8.06738V27.0833H21.0993V22.9167ZM8.06738 22.9167C4.95197 22.9167 2.37168 20.5049 2.10594 17.4052L-2.0455 17.7612C-1.59868 22.9729 2.74564 27.0833 8.06738 27.0833V22.9167ZM27.0833 16.875C27.0833 20.2257 24.3902 22.9167 21.0993 22.9167V27.0833C26.7193 27.0833 31.25 22.4989 31.25 16.875H27.0833ZM21.0993 2.08333C24.3902 2.08333 27.0833 4.77427 27.0833 8.125H31.25C31.25 2.5011 26.7193 -2.08333 21.0993 -2.08333V2.08333ZM8.06738 -2.08333C2.55385 -2.08333 -1.62067 2.7941 -2.04628 7.86797L2.10581 8.21625C2.38773 4.85528 5.14014 2.08333 8.06738 2.08333V-2.08333ZM3.90089 13.7787C3.36873 13.2439 3.36873 12.3811 3.90089 11.8463L6.85427 14.7855C7.93983 13.6947 7.93983 11.9303 6.85427 10.8395L3.90089 13.7787ZM0.566479 10.4281L3.90089 13.7787L6.85427 10.8395L3.51986 7.48895L0.566479 10.4281ZM1.54216 10.8333C1.17428 10.8333 0.823517 10.6864 0.566477 10.4281L3.51986 7.48895C2.99707 6.96363 2.28586 6.66667 1.54216 6.66667V10.8333ZM0.708555 10.8333H1.54216V6.66667H0.708555V10.8333ZM1.54216 14.7917H0.708555V18.9583H1.54216V14.7917ZM0.566482 15.1969C0.82352 14.9386 1.17428 14.7917 1.54216 14.7917V18.9583C2.28586 18.9583 2.99706 18.6614 3.51985 18.1361L0.566482 15.1969ZM3.90089 11.8464L0.566479 15.1969L3.51986 18.1361L6.85427 14.7855L3.90089 11.8464ZM27.0833 8.125V10.3125H31.25V8.125H27.0833ZM27.0833 10.3125V12.5H31.25V10.3125H27.0833ZM27.0833 12.5V14.6875H31.25V12.5H27.0833ZM27.0833 14.6875V16.875H31.25V14.6875H27.0833ZM-2.04628 7.86797C-2.19058 9.58826 -0.783251 10.8333 0.708555 10.8333V6.66667C1.41771 6.66667 2.18469 7.27587 2.10581 8.21625L-2.04628 7.86797ZM2.10594 17.4052C2.18686 18.349 1.41707 18.9583 0.708555 18.9583V14.7917C-0.782611 14.7917 -2.19327 16.0376 -2.0455 17.7612L2.10594 17.4052Z" fill="#4F351D" mask="url(#path-1-inside-1)"/>
<path d="M10.8333 18.3333C21.4583 18.3333 11.2499 7.5 21.6666 7.5" stroke="black" stroke-width="2.08333" stroke-linecap="round"/>
<defs>
<radialGradient id="paint0_radial" cx="0" cy="0" r="1" gradientUnits="userSpaceOnUse" gradientTransform="translate(14.5833 12.5) rotate(90) scale(18.3333 21.3889)">
<stop stop-color="white"/>
<stop offset="1" stop-color="#FFEFD7"/>
</radialGradient>
</defs>
</svg>
