<svg width="65" height="65" viewBox="0 0 65 65" fill="none" xmlns="http://www.w3.org/2000/svg">
<rect x="1.69776" y="1.69776" width="61.6045" height="61.6045" rx="8.00373" fill="#ECEDFF" stroke="black" stroke-width="3.39552"/>
<rect x="8.73132" y="7.76123" width="12.6119" height="12.6119" rx="2.91045" fill="#6E56BC"/>
<rect x="10.0653" y="9.09519" width="9.94403" height="9.94403" rx="1.57649" stroke="black" stroke-opacity="0.15" stroke-width="2.66791"/>
<rect x="8.73132" y="25.4004" width="12.6119" height="12.6119" rx="2.91045" fill="#C6B7EC"/>
<rect x="10.0653" y="26.7343" width="9.94403" height="9.94403" rx="1.57649" stroke="black" stroke-opacity="0.15" stroke-width="2.66791"/>
<rect x="8.73132" y="43.0393" width="12.6119" height="12.6119" rx="2.91045" fill="#9F8DDF"/>
<rect x="10.0653" y="44.3733" width="9.94403" height="9.94403" rx="1.57649" stroke="black" stroke-opacity="0.15" stroke-width="2.66791"/>
<rect x="26.3704" y="7.76123" width="12.6119" height="12.6119" rx="2.91045" fill="#EAE3FF"/>
<rect x="27.7043" y="9.09519" width="9.94403" height="9.94403" rx="1.57649" stroke="black" stroke-opacity="0.15" stroke-width="2.66791"/>
<rect x="26.3704" y="25.4004" width="12.6119" height="12.6119" rx="2.91045" fill="#EAE3FF"/>
<rect x="27.7043" y="26.7343" width="9.94403" height="9.94403" rx="1.57649" stroke="black" stroke-opacity="0.15" stroke-width="2.66791"/>
<rect x="26.3704" y="43.0393" width="12.6119" height="12.6119" rx="2.91045" fill="#9F8DDF"/>
<rect x="27.7043" y="44.3733" width="9.94403" height="9.94403" rx="1.57649" stroke="black" stroke-opacity="0.15" stroke-width="2.66791"/>
<rect x="44.0095" y="7.76123" width="12.6119" height="12.6119" rx="2.91045" fill="#C6B7EC"/>
<rect x="45.3435" y="9.09519" width="9.94403" height="9.94403" rx="1.57649" stroke="black" stroke-opacity="0.15" stroke-width="2.66791"/>
<rect x="44.0095" y="25.4004" width="12.6119" height="12.6119" rx="2.91045" fill="#6E56BC"/>
<rect x="45.3435" y="26.7343" width="9.94403" height="9.94403" rx="1.57649" stroke="black" stroke-opacity="0.15" stroke-width="2.66791"/>
<rect x="44.0095" y="43.0393" width="12.6119" height="12.6119" rx="2.91045" fill="#EAE3FF"/>
<rect x="45.3435" y="44.3733" width="9.94403" height="9.94403" rx="1.57649" stroke="black" stroke-opacity="0.15" stroke-width="2.66791"/>
</svg>
