<svg width="54" height="54" viewBox="0 0 54 54" fill="none" xmlns="http://www.w3.org/2000/svg">
<path d="M52 29V50C52 51.1046 51.1046 52 50 52H29C27.8954 52 27 51.1046 27 50V39.5H16.5C15.3954 39.5 14.5 38.6046 14.5 37.5V27H4C2.89543 27 2 26.1046 2 25V4C2 2.89543 2.89543 2 4 2H25C26.1046 2 27 2.89543 27 4V14.5H37.5C38.6046 14.5 39.5 15.3954 39.5 16.5V27H50C51.1046 27 52 27.8954 52 29Z" fill="url(#paint0_linear)"/>
<path d="M39.5 27H50C51.1046 27 52 27.8954 52 29V50C52 51.1046 51.1046 52 50 52H29C27.8954 52 27 51.1046 27 50V39.5M39.5 27V16.5C39.5 15.3954 38.6046 14.5 37.5 14.5H27M39.5 27H29C27.8954 27 27 27.8954 27 29V39.5M27 39.5H16.5C15.3954 39.5 14.5 38.6046 14.5 37.5V27M27 14.5H16.5C15.3954 14.5 14.5 15.3954 14.5 16.5V27M27 14.5V4C27 2.89543 26.1046 2 25 2H4C2.89543 2 2 2.89543 2 4V25C2 26.1046 2.89543 27 4 27H14.5" stroke="black" stroke-width="2.5"/>
<defs>
<linearGradient id="paint0_linear" x1="2" y1="2" x2="52" y2="52" gradientUnits="userSpaceOnUse">
<stop stop-color="#FF6939"/>
<stop offset="0.677083" stop-color="#FFF2F2"/>
</linearGradient>
</defs>
</svg>
