<svg width="11" height="15" viewBox="0 0 11 15" fill="none" xmlns="http://www.w3.org/2000/svg">
<path d="M9.96493 8.42941C10.4777 7.91611 10.4777 7.08389 9.96493 6.57059L3.78611 0.384976C3.53988 0.138481 3.20593 -1.19209e-07 2.85772 -1.19209e-07H1.31301C0.781972 -1.19209e-07 0.303225 0.32024 0.100005 0.811393C-0.103213 1.30255 0.00911645 1.86789 0.384616 2.2438L4.06803 6.93125L4.062 8.07478L0.384616 12.7562C0.00911645 13.1321 -0.103213 13.6975 0.100005 14.1886C0.303225 14.6798 0.781972 15 1.31301 15H2.85772C3.20593 15 3.53988 14.8615 3.78611 14.615L9.96493 8.42941Z" fill="#4C4D50"/>
</svg>
