<svg width="34" height="19" viewBox="0 0 34 19" fill="none" xmlns="http://www.w3.org/2000/svg">
<path d="M24.5 1H9.5C4.80558 1 1 4.80558 1 9.5C1 14.1944 4.80558 18 9.5 18H24.5C29.1944 18 33 14.1944 33 9.5C33 4.80558 29.1944 1 24.5 1Z" fill="#001E33" stroke="#CBD7FF" stroke-width="2"/>
<path d="M29.8572 9.50002C29.8572 12.1628 27.6985 14.3214 25.0357 14.3214C22.3729 14.3214 20.2143 12.1628 20.2143 9.50002C20.2143 6.83722 22.3729 4.67859 25.0357 4.67859C27.6985 4.67859 29.8572 6.83722 29.8572 9.50002Z" fill="#CBD7FF"/>
<path d="M4.14285 9.34813C4.14285 12.0109 6.30148 14.1696 8.96428 14.1696C10.8912 14.1696 12.554 13.0392 13.326 11.4054C13.5002 11.0368 13.1462 10.6696 12.7393 10.6955C12.6365 10.7021 12.5329 10.7054 12.4285 10.7054C9.76566 10.7054 7.60703 8.54676 7.60703 5.88396C7.60703 5.77953 7.61035 5.67588 7.61689 5.57311C7.64278 5.16623 7.27561 4.81223 6.90698 4.98641C5.2732 5.75837 4.14285 7.42125 4.14285 9.34813Z" fill="#F9B042"/>
<path fill-rule="evenodd" clip-rule="evenodd" d="M5.21428 9.34813C5.21428 11.4192 6.89321 13.0981 8.96428 13.0981C10.1213 13.0981 11.1572 12.5742 11.8458 11.7484C9.05646 11.4746 6.83779 9.25596 6.56404 6.46657C5.73826 7.15519 5.21428 8.19111 5.21428 9.34813ZM13.326 11.4054C12.554 13.0392 10.8912 14.1696 8.96428 14.1696C6.30148 14.1696 4.14285 12.0109 4.14285 9.34813C4.14285 7.42125 5.2732 5.75837 6.90698 4.98641C7.27561 4.81223 7.64278 5.16623 7.61689 5.57311C7.61035 5.67588 7.60703 5.77953 7.60703 5.88396C7.60703 8.54676 9.76566 10.7054 12.4285 10.7054C12.5329 10.7054 12.6365 10.7021 12.7393 10.6955C13.1462 10.6696 13.5002 11.0368 13.326 11.4054Z" fill="black" fill-opacity="0.5"/>
</svg>
