<svg width="28" height="55" viewBox="0 0 28 55" fill="none" xmlns="http://www.w3.org/2000/svg">
<path d="M26 13.75V27.5V41.25C26 44.6022 23.7186 47.5242 20.4665 48.3372L1.5 53.0788V48.125V41.25V27.5V13.75V6.875V1.92116L20.4665 6.66278C23.7186 7.4758 26 10.3978 26 13.75Z" fill="#F4F9FF" stroke="black" stroke-width="3"/>
<path d="M11.2507 21.8667C11.2507 21.388 11.6387 21 12.1173 21H14.8827C15.3613 21 15.7493 21.388 15.7493 21.8667V24.0924C15.7493 24.8103 16.3313 25.3924 17.0493 25.3924H19.1333C19.612 25.3924 20 25.7804 20 26.259V28.8118C20 29.2905 19.612 29.6785 19.1333 29.6785H17.0493C16.3313 29.6785 15.7493 30.2605 15.7493 30.9785V33.1333C15.7493 33.612 15.3613 34 14.8827 34H12.1173C11.6387 34 11.2507 33.612 11.2507 33.1333V30.9785C11.2507 30.2605 10.6687 29.6785 9.95068 29.6785H7.86667C7.38802 29.6785 7 29.2905 7 28.8118V26.259C7 25.7804 7.38802 25.3924 7.86667 25.3924H9.95068C10.6687 25.3924 11.2507 24.8103 11.2507 24.0924V21.8667Z" fill="black"/>
</svg>
