<svg width="55" height="63" viewBox="0 0 55 63" fill="none" xmlns="http://www.w3.org/2000/svg">
<path d="M2.88535 16.357L26.5082 2.56269C26.9982 2.27656 27.6038 2.27439 28.0959 2.55701L52.125 16.3588C52.6168 16.6413 52.9201 17.1652 52.9201 17.7324V45.2827C52.9201 45.8502 52.6166 46.3742 52.1244 46.6566L28.0953 60.444C27.6035 60.7262 26.9985 60.724 26.5088 60.4383L2.88597 46.6585C2.39934 46.3746 2.1001 45.8537 2.1001 45.2903V17.7248C2.1001 17.1617 2.39907 16.6409 2.88535 16.357Z" fill="url(#paint0_linear)"/>
<path d="M29.3991 1.21088C28.1002 0.461509 26.5004 0.461501 25.2015 1.21086L2.10118 14.5378C0.801032 15.2879 0 16.6748 0 18.1758V44.8241C0 46.3251 0.801027 47.712 2.10117 48.4621L25.2015 61.7891C26.5004 62.5385 28.1003 62.5385 29.3991 61.7891L52.4989 48.4621C53.799 47.712 54.6 46.3251 54.6 44.8241V18.1758C54.6 16.6748 53.799 15.2879 52.4989 14.5378L29.3991 1.21088ZM46.0545 15.0827C47.3887 15.8524 47.3885 17.7781 46.0542 18.5476L28.2994 28.7864C27.6811 29.143 26.9195 29.143 26.3012 28.7864L8.54593 18.5476C7.21155 17.7781 7.21136 15.8524 8.54559 15.0826L26.3009 4.8393C26.9194 4.48246 27.6812 4.48247 28.2998 4.83931L46.0545 15.0827ZM3.69434 23.474C3.69434 21.9349 5.36012 20.9726 6.69345 21.7415L24.4523 31.9824C25.0716 32.3396 25.4531 33.0001 25.4531 33.715V54.2088C25.4531 55.7482 23.787 56.7104 22.4537 55.9412L4.6949 45.6958C4.07578 45.3387 3.69434 44.6782 3.69434 43.9635V23.474ZM32.1469 55.9412C30.8136 56.7104 29.1475 55.7481 29.1475 54.2088V51.3936V45.1156V38.8376V33.715C29.1475 33.0001 29.5291 32.3396 30.1483 31.9824L34.587 29.4227L40.0266 26.2858L45.4661 23.149L47.9065 21.7416C49.2399 20.9727 50.9057 21.935 50.9057 23.4742V26.2887V32.5654V38.8421V43.9636C50.9057 44.6783 50.5242 45.3388 49.9051 45.696L45.4661 48.2569L40.0266 51.3952L34.587 54.5334L32.1469 55.9412Z" fill="black"/>
<path d="M40.279 26.4337L34.8394 29.5706M40.279 26.4337L45.7185 23.2968M40.279 26.4337V32.711V38.9883V51.543M40.279 51.543L34.8394 54.6812M40.279 51.543L45.7185 48.4048M34.8394 54.6812L31.9194 56.3659C30.7994 57.012 29.3999 56.2037 29.3999 54.9107V51.5415M34.8394 54.6812V48.4036M34.8394 29.5706L30.2406 32.2226C29.7204 32.5226 29.3999 33.0774 29.3999 33.6779V38.9855M34.8394 29.5706V35.8482V42.1259V48.4036M45.7185 23.2968L48.6388 21.6127C49.7588 20.9668 51.1581 21.7752 51.1581 23.0681V26.4366M45.7185 23.2968V29.5738V35.8508V42.1278V48.4048M45.7185 48.4048L50.3176 45.7514C50.8377 45.4514 51.1581 44.8966 51.1581 44.2962V38.9899M29.3999 45.2635L51.1581 32.7132M29.3999 45.2635V38.9855M29.3999 45.2635V51.5415M51.1581 32.7132V26.4366M51.1581 32.7132V38.9899M51.1581 26.4366L29.3999 38.9855M29.3999 51.5415L34.8394 48.4036M51.1581 38.9899L40.279 45.2657L34.8394 48.4036" stroke="black" stroke-width="2.1"/>
<defs>
<linearGradient id="paint0_linear" x1="-15.9999" y1="-8.9999" x2="50.0001" y2="52.5001" gradientUnits="userSpaceOnUse">
<stop stop-color="#A35AEC"/>
<stop offset="1" stop-color="#F8FFFF"/>
</linearGradient>
</defs>
</svg>
