<svg width="54" height="69" viewBox="0 0 54 69" fill="none" xmlns="http://www.w3.org/2000/svg">
<path d="M2 21.3071C2 10.6769 13.1929 2 27 2C40.8071 2 52 10.6769 52 21.3071V34.5V47.6929C52 58.3559 40.8071 67 27 67C13.1929 67 2 58.3559 2 47.6929V34.5V21.3071Z" fill="#E2E6FB"/>
<path d="M52 21.3071C52 31.9373 40.8071 40.6142 27 40.6142C13.1929 40.6142 2 31.9373 2 21.3071M52 21.3071C52 10.6769 40.8071 2 27 2C13.1929 2 2 10.6769 2 21.3071M52 21.3071V34.5M2 21.3071V34.5M52 34.5C52 45.163 40.8071 53.8071 27 53.8071C13.1929 53.8071 2 45.163 2 34.5M52 34.5V47.6929C52 58.3559 40.8071 67 27 67C13.1929 67 2 58.3559 2 47.6929V34.5" stroke="black" stroke-width="4"/>
</svg>
