<svg width="39" height="51" viewBox="0 0 39 51" fill="none" xmlns="http://www.w3.org/2000/svg">
<path d="M36.5886 9.26405V9.26446L36.5884 41.5C36.5884 41.7772 36.4448 42.0374 36.2042 42.1864L36.9943 43.4615L36.2042 42.1864L24.9936 49.1323C24.4396 49.4755 23.7402 49.0722 23.7402 48.4459V2.31362C23.7402 1.68719 24.4398 1.28388 24.9938 1.62733L36.2046 8.57753C36.4451 8.72662 36.5887 8.98683 36.5886 9.26405Z" fill="#F0F2F7" stroke="black" stroke-width="3"/>
<path d="M14.697 44.8415L3.64924 37.9965C3.2807 37.7681 3.2807 37.232 3.64924 37.0037L14.697 30.1587C15.0861 29.9176 15.5886 30.1974 15.5886 30.6551V44.3451C15.5886 44.8027 15.0861 45.0825 14.697 44.8415Z" fill="#FFDDD8" stroke="black" stroke-width="3"/>
<path d="M14.6973 19.9304L3.6495 13.0896C3.28089 12.8614 3.28075 12.3252 3.64922 12.0968L14.697 5.24761C15.0861 5.00643 15.5887 5.28622 15.5887 5.74394V19.4339C15.5887 19.8915 15.0863 20.1713 14.6973 19.9304Z" fill="#FFE8D5" stroke="black" stroke-width="3"/>
</svg>
